<svg width="85" height="85" viewBox="0 0 85 85" fill="none" xmlns="http://www.w3.org/2000/svg">
<g clip-path="url(#clip0_18_80164)">
<path d="M54.4924 39.2229L51.8384 36.5688L49.1844 39.2229L51.8384 41.8769L54.4924 39.2229Z" fill="#BF1616"/>
<path d="M48.426 33.1545L45.772 30.5005L43.118 33.1545L45.772 35.8085L48.426 33.1545Z" fill="#BF1616"/>
<path d="M54.4909 27.0925L51.8369 24.4385L49.1829 27.0925L51.8369 29.7465L54.4909 27.0925Z" fill="#BF1616"/>
<path d="M60.5573 33.1545L57.9033 30.5005L55.2493 33.1545L57.9033 35.8085L60.5573 33.1545Z" fill="#BF1616"/>
<path d="M60.5573 39.2229L57.9033 36.5688L55.2493 39.2229L57.9033 41.8769L60.5573 39.2229Z" fill="#BF1616"/>
<path d="M48.426 27.0925L45.772 24.4385L43.118 27.0925L45.772 29.7465L48.426 27.0925Z" fill="#BF1616"/>
<path d="M63.591 30.1203L60.937 27.4663L58.283 30.1203L60.937 32.7743L63.591 30.1203Z" fill="#BF1616"/>
<path d="M57.5246 24.0578L54.8706 21.4038L52.2166 24.0578L54.8706 26.7118L57.5246 24.0578Z" fill="#BF1616"/>
<path d="M63.591 17.989L60.937 15.335L58.283 17.989L60.937 20.643L63.591 17.989Z" fill="black"/>
<path d="M60.5598 21.0236L57.9058 18.3696L55.2517 21.0236L57.9058 23.6777L60.5598 21.0236Z" fill="#BF1616"/>
<path d="M72.6897 21.0236L70.0356 18.3696L67.3816 21.0236L70.0356 23.6776L72.6897 21.0236Z" fill="black"/>
<path d="M72.6897 14.9553L70.0356 12.3013L67.3816 14.9553L70.0356 17.6093L72.6897 14.9553Z" fill="black"/>
<path d="M66.6257 27.0925L63.9717 24.4385L61.3177 27.0925L63.9717 29.7465L66.6257 27.0925Z" fill="#BF1616"/>
<path d="M66.6247 21.0236L63.9707 18.3696L61.3167 21.0236L63.9707 23.6777L66.6247 21.0236Z" fill="#BF1616"/>
<path d="M63.591 36.1892L60.937 33.5352L58.283 36.1892L60.937 38.8432L63.591 36.1892Z" fill="black"/>
<path d="M72.6911 27.0925L70.0371 24.4385L67.3831 27.0925L70.0371 29.7465L72.6911 27.0925Z" fill="black"/>
<path d="M57.5261 36.1892L54.8721 33.5352L52.2181 36.1892L54.8721 38.8432L57.5261 36.1892Z" fill="black"/>
<path d="M69.656 24.0578L67.002 21.4038L64.3479 24.0578L67.002 26.7118L69.656 24.0578Z" fill="black"/>
<path d="M51.4587 36.1892L48.8047 33.5352L46.1507 36.1892L48.8047 38.8432L51.4587 36.1892Z" fill="black"/>
<path d="M69.6584 17.9963L67.0044 15.3423L64.3504 17.9963L67.0044 20.6503L69.6584 17.9963Z" fill="black"/>
<path d="M60.5598 27.0925L57.9058 24.4385L55.2517 27.0925L57.9058 29.7465L60.5598 27.0925Z" fill="#BF1616"/>
<path d="M51.4611 30.1267L48.8071 27.4727L46.1531 30.1267L48.8071 32.7807L51.4611 30.1267Z" fill="black"/>
<path d="M66.6247 14.9626L63.9707 12.3086L61.3167 14.9626L63.9707 17.6166L66.6247 14.9626Z" fill="black"/>
<path d="M51.4597 24.0578L48.8057 21.4038L46.1517 24.0578L48.8057 26.7118L51.4597 24.0578Z" fill="black"/>
<path d="M60.5583 14.9626L57.9043 12.3086L55.2503 14.9626L57.9043 17.6166L60.5583 14.9626Z" fill="black"/>
<path d="M51.458 42.255L42.7381 33.5352" stroke="black" stroke-width="1.42383" stroke-miterlimit="10"/>
<path d="M75.4561 13.2243L75.4561 9.31934" stroke="black" stroke-width="1.42383" stroke-miterlimit="10"/>
<path d="M71.7798 13.0127L75.646 13.0127" stroke="black" stroke-width="1.42383" stroke-miterlimit="10"/>
<path d="M71.9688 9.32666L71.9687 13.2207" stroke="black" stroke-width="1.42383" stroke-miterlimit="10"/>
<path d="M75.6631 9.52441L71.7606 9.52441" stroke="black" stroke-width="1.42383" stroke-miterlimit="10"/>
<path d="M48.4284 51.0583L45.7744 48.4043L43.1204 51.0583L45.7744 53.7123L48.4284 51.0583Z" fill="#BF1616"/>
<path d="M54.4934 44.9958L51.8394 42.3418L49.1853 44.9958L51.8394 47.6498L54.4934 44.9958Z" fill="#BF1616"/>
<path d="M60.5608 51.0642L57.9067 48.4102L55.2527 51.0642L57.9067 53.7182L60.5608 51.0642Z" fill="#BF1616"/>
<path d="M54.4948 57.1267L51.8408 54.4727L49.1868 57.1267L51.8408 59.7807L54.4948 57.1267Z" fill="#BF1616"/>
<path d="M48.4299 57.1267L45.7759 54.4727L43.1219 57.1267L45.7759 59.7807L48.4299 57.1267Z" fill="#BF1616"/>
<path d="M60.5607 44.9958L57.9067 42.3418L55.2527 44.9958L57.9067 47.6498L60.5607 44.9958Z" fill="#BF1616"/>
<path d="M57.5285 60.1613L54.8745 57.5073L52.2205 60.1613L54.8745 62.8153L57.5285 60.1613Z" fill="#BF1616"/>
<path d="M63.5935 54.0925L60.9395 51.4385L58.2854 54.0925L60.9395 56.7465L63.5935 54.0925Z" fill="#BF1616"/>
<path d="M69.6599 60.1613L67.0059 57.5073L64.3518 60.1613L67.0059 62.8153L69.6599 60.1613Z" fill="black"/>
<path d="M66.6281 57.1267L63.9741 54.4727L61.3201 57.1267L63.9741 59.7807L66.6281 57.1267Z" fill="#BF1616"/>
<path d="M66.6281 69.2644L63.9741 66.6104L61.3201 69.2644L63.9741 71.9184L66.6281 69.2644Z" fill="black"/>
<path d="M72.6936 69.257L70.0396 66.603L67.3855 69.257L70.0396 71.9111L72.6936 69.257Z" fill="black"/>
<path d="M60.5608 63.1887L57.9067 60.5347L55.2527 63.1887L57.9067 65.8427L60.5608 63.1887Z" fill="#BF1616"/>
<path d="M66.6281 63.1955L63.9741 60.5415L61.3201 63.1955L63.9741 65.8495L66.6281 63.1955Z" fill="#BF1616"/>
<path d="M51.4611 60.154L48.8071 57.5L46.1531 60.154L48.8071 62.808L51.4611 60.154Z" fill="black"/>
<path d="M60.5608 69.257L57.9067 66.603L55.2527 69.257L57.9067 71.9111L60.5608 69.257Z" fill="black"/>
<path d="M51.4636 54.0988L48.8096 51.4448L46.1556 54.0988L48.8096 56.7528L51.4636 54.0988Z" fill="black"/>
<path d="M63.5944 66.2229L60.9404 63.5688L58.2864 66.2229L60.9404 68.8769L63.5944 66.2229Z" fill="black"/>
<path d="M51.4621 48.0305L48.8081 45.3765L46.1541 48.0305L48.8081 50.6845L51.4621 48.0305Z" fill="black"/>
<path d="M69.6599 66.2229L67.0059 63.5688L64.3518 66.2229L67.0059 68.8769L69.6599 66.2229Z" fill="black"/>
<path d="M60.5622 57.1267L57.9082 54.4727L55.2542 57.1267L57.9082 59.7807L60.5622 57.1267Z" fill="#BF1616"/>
<path d="M57.5271 48.0305L54.873 45.3765L52.219 48.0305L54.873 50.6845L57.5271 48.0305Z" fill="black"/>
<path d="M72.6936 63.1955L70.0396 60.5415L67.3855 63.1955L70.0396 65.8495L72.6936 63.1955Z" fill="black"/>
<path d="M63.5935 48.0305L60.9395 45.3765L58.2854 48.0305L60.9395 50.6845L63.5935 48.0305Z" fill="black"/>
<path d="M72.6936 57.1267L70.0396 54.4727L67.3855 57.1267L70.0396 59.7807L72.6936 57.1267Z" fill="black"/>
<path d="M42.743 50.6798L51.4629 41.96" stroke="black" stroke-width="1.42383" stroke-miterlimit="10"/>
<path d="M71.7846 74.6733L75.6812 74.6818" stroke="black" stroke-width="1.42383" stroke-miterlimit="10"/>
<path d="M71.9847 71.0005L71.9932 74.8575" stroke="black" stroke-width="1.42383" stroke-miterlimit="10"/>
<path d="M75.6836 71.1841L71.7904 71.1841" stroke="black" stroke-width="1.42383" stroke-miterlimit="10"/>
<path d="M75.4731 74.8888L75.4731 70.9863" stroke="black" stroke-width="1.42383" stroke-miterlimit="10"/>
<path d="M36.5627 45.0285L33.9087 42.3745L31.2547 45.0285L33.9087 47.6825L36.5627 45.0285Z" fill="#BF1616"/>
<path d="M42.6276 51.0915L39.9736 48.4375L37.3196 51.0915L39.9736 53.7455L42.6276 51.0915Z" fill="#BF1616"/>
<path d="M36.5627 57.1594L33.9087 54.5054L31.2547 57.1594L33.9087 59.8134L36.5627 57.1594Z" fill="#BF1616"/>
<path d="M30.4978 51.0974L27.8438 48.4434L25.1897 51.0974L27.8437 53.7514L30.4978 51.0974Z" fill="#BF1616"/>
<path d="M30.4978 45.0285L27.8438 42.3745L25.1897 45.0285L27.8437 47.6825L30.4978 45.0285Z" fill="#BF1616"/>
<path d="M42.6276 57.1594L39.9736 54.5054L37.3196 57.1594L39.9736 59.8134L42.6276 57.1594Z" fill="#BF1616"/>
<path d="M27.4641 54.1257L24.8101 51.4717L22.156 54.1257L24.8101 56.7797L27.4641 54.1257Z" fill="#BF1616"/>
<path d="M33.529 60.194L30.875 57.54L28.221 60.1941L30.875 62.8481L33.529 60.194Z" fill="#BF1616"/>
<path d="M27.4641 66.2624L24.8101 63.6084L22.156 66.2624L24.8101 68.9164L27.4641 66.2624Z" fill="black"/>
<path d="M30.4953 63.2209L27.8413 60.5669L25.1873 63.2209L27.8413 65.8749L30.4953 63.2209Z" fill="#BF1616"/>
<path d="M18.364 63.2282L15.71 60.5742L13.0559 63.2282L15.71 65.8822L18.364 63.2282Z" fill="black"/>
<path d="M18.364 69.2898L15.71 66.6357L13.0559 69.2898L15.71 71.9438L18.364 69.2898Z" fill="black"/>
<path d="M24.4304 57.1594L21.7764 54.5054L19.1224 57.1594L21.7764 59.8134L24.4304 57.1594Z" fill="#BF1616"/>
<path d="M24.4289 63.2209L21.7749 60.5669L19.1209 63.2209L21.7749 65.8749L24.4289 63.2209Z" fill="#BF1616"/>
<path d="M27.4626 48.0632L24.8086 45.4092L22.1546 48.0632L24.8086 50.7172L27.4626 48.0632Z" fill="black"/>
<path d="M18.364 57.1594L15.71 54.5054L13.0559 57.1594L15.71 59.8134L18.364 57.1594Z" fill="black"/>
<path d="M33.529 48.0568L30.875 45.4028L28.221 48.0568L30.875 50.7109L33.529 48.0568Z" fill="black"/>
<path d="M21.3977 60.194L18.7437 57.54L16.0896 60.1941L18.7436 62.8481L21.3977 60.194Z" fill="black"/>
<path d="M39.594 48.0568L36.9399 45.4028L34.2859 48.0568L36.9399 50.7109L39.594 48.0568Z" fill="black"/>
<path d="M21.3967 66.2556L18.7427 63.6016L16.0887 66.2556L18.7427 68.9096L21.3967 66.2556Z" fill="black"/>
<path d="M30.4953 57.1594L27.8413 54.5054L25.1873 57.1594L27.8413 59.8134L30.4953 57.1594Z" fill="#BF1616"/>
<path d="M39.594 54.1257L36.9399 51.4717L34.2859 54.1257L36.9399 56.7797L39.594 54.1257Z" fill="black"/>
<path d="M24.4304 69.2898L21.7764 66.6357L19.1224 69.2898L21.7764 71.9438L24.4304 69.2898Z" fill="black"/>
<path d="M39.594 60.194L36.9399 57.54L34.2859 60.1941L36.9399 62.8481L39.594 60.194Z" fill="black"/>
<path d="M30.4953 69.2898L27.8413 66.6357L25.1873 69.2898L27.8413 71.9438L30.4953 69.2898Z" fill="black"/>
<path d="M34.2865 41.9927L43.0063 50.7126" stroke="black" stroke-width="1.42383" stroke-miterlimit="10"/>
<path d="M10.292 71.0264L10.292 74.9314" stroke="black" stroke-width="1.42383" stroke-miterlimit="10"/>
<path d="M13.9663 71.2368L10.1009 71.2368" stroke="black" stroke-width="1.42383" stroke-miterlimit="10"/>
<path d="M13.7793 74.9268L13.7793 71.0327" stroke="black" stroke-width="1.42383" stroke-miterlimit="10"/>
<path d="M10.0824 74.7251L13.9849 74.7251" stroke="black" stroke-width="1.42383" stroke-miterlimit="10"/>
<path d="M42.6242 33.1872L39.9702 30.5332L37.3162 33.1872L39.9702 35.8412L42.6242 33.1872Z" fill="#BF1616"/>
<path d="M36.5568 39.2497L33.9028 36.5957L31.2488 39.2497L33.9028 41.9037L36.5568 39.2497Z" fill="#BF1616"/>
<path d="M30.4929 33.1872L27.8389 30.5332L25.1849 33.1872L27.8389 35.8412L30.4929 33.1872Z" fill="#BF1616"/>
<path d="M36.5593 27.1257L33.9053 24.4717L31.2513 27.1257L33.9053 29.7797L36.5593 27.1257Z" fill="#BF1616"/>
<path d="M42.6242 27.1257L39.9702 24.4717L37.3162 27.1257L39.9702 29.7797L42.6242 27.1257Z" fill="#BF1616"/>
<path d="M30.4929 39.2561L27.8389 36.6021L25.1849 39.2561L27.8389 41.9101L30.4929 39.2561Z" fill="#BF1616"/>
<path d="M33.5266 24.092L30.8726 21.438L28.2185 24.092L30.8726 26.746L33.5266 24.092Z" fill="#BF1616"/>
<path d="M27.4602 30.1599L24.8062 27.5059L22.1521 30.1599L24.8062 32.8139L27.4602 30.1599Z" fill="#BF1616"/>
<path d="M21.3928 24.0842L18.7388 21.4302L16.0848 24.0842L18.7388 26.7382L21.3928 24.0842Z" fill="black"/>
<path d="M24.4265 27.1184L21.7725 24.4644L19.1185 27.1184L21.7725 29.7724L24.4265 27.1184Z" fill="#BF1616"/>
<path d="M24.4255 14.989L21.7715 12.335L19.1175 14.989L21.7715 17.643L24.4255 14.989Z" fill="black"/>
<path d="M18.3591 14.989L15.7051 12.335L13.0511 14.989L15.7051 17.643L18.3591 14.989Z" fill="black"/>
<path d="M30.4943 21.0573L27.8403 18.4033L25.1863 21.0573L27.8403 23.7113L30.4943 21.0573Z" fill="#BF1616"/>
<path d="M24.4255 21.0573L21.7715 18.4033L19.1175 21.0573L21.7715 23.7113L24.4255 21.0573Z" fill="#BF1616"/>
<path d="M39.5915 24.092L36.9375 21.438L34.2835 24.092L36.9375 26.746L39.5915 24.092Z" fill="black"/>
<path d="M30.4943 14.9948L27.8403 12.3408L25.1863 14.9948L27.8403 17.6488L30.4943 14.9948Z" fill="black"/>
<path d="M39.5905 30.153L36.9365 27.499L34.2825 30.153L36.9365 32.807L39.5905 30.153Z" fill="black"/>
<path d="M27.4602 18.0232L24.8062 15.3691L22.1521 18.0232L24.8062 20.6772L27.4602 18.0232Z" fill="black"/>
<path d="M39.5915 36.2219L36.9375 33.5679L34.2835 36.2219L36.9375 38.8759L39.5915 36.2219Z" fill="black"/>
<path d="M21.3942 18.0232L18.7402 15.3691L16.0862 18.0232L18.7402 20.6772L21.3942 18.0232Z" fill="black"/>
<path d="M30.4914 27.1184L27.8374 24.4644L25.1834 27.1184L27.8374 29.7724L30.4914 27.1184Z" fill="#BF1616"/>
<path d="M33.5266 36.2219L30.8726 33.5679L28.2185 36.2219L30.8726 38.8759L33.5266 36.2219Z" fill="black"/>
<path d="M18.3606 21.0573L15.7065 18.4033L13.0525 21.0573L15.7065 23.7113L18.3606 21.0573Z" fill="black"/>
<path d="M27.4602 36.2219L24.8062 33.5679L22.1521 36.2219L24.8062 38.8759L27.4602 36.2219Z" fill="black"/>
<path d="M18.3615 27.1257L15.7075 24.4717L13.0535 27.1257L15.7075 29.7797L18.3615 27.1257Z" fill="black"/>
<path d="M43.0024 33.5679L34.2826 42.2877" stroke="black" stroke-width="1.42383" stroke-miterlimit="10"/>
<path d="M13.7612 13.2443L13.7612 9.37891" stroke="black" stroke-width="1.42383" stroke-miterlimit="10"/>
<path d="M10.0698 13.0581L13.9639 13.0581" stroke="black" stroke-width="1.42383" stroke-miterlimit="10"/>
<path d="M10.2739 9.36572L10.2739 13.2682" stroke="black" stroke-width="1.42383" stroke-miterlimit="10"/>
<path d="M10.0663 9.52441L13.9688 9.52441" stroke="black" stroke-width="1.42383" stroke-miterlimit="10"/>
</g>
<defs>
<clipPath id="clip0_18_80164">
<rect width="84.25" height="84.25" fill="white" transform="translate(85) rotate(90)"/>
</clipPath>
</defs>
</svg>
