<svg width="26" height="26" viewBox="0 0 26 26" fill="none" xmlns="http://www.w3.org/2000/svg">
<path d="M4.28589 8.74994C4.28589 7.6213 4.73424 6.53888 5.53231 5.74081C6.33038 4.94274 7.4128 4.49438 8.54144 4.49438H17.0526C18.1812 4.49438 19.2636 4.94274 20.0617 5.74081C20.8598 6.53888 21.3081 7.6213 21.3081 8.74994V17.2611C21.3081 18.3897 20.8598 19.4721 20.0617 20.2702C19.2636 21.0683 18.1812 21.5166 17.0526 21.5166H8.54144C7.4128 21.5166 6.33038 21.0683 5.53231 20.2702C4.73424 19.4721 4.28589 18.3897 4.28589 17.2611V8.74994Z" stroke="black" stroke-width="1.59583" stroke-linecap="round" stroke-linejoin="round"/>
<path d="M9.60547 13.0056C9.60547 13.8521 9.94173 14.6639 10.5403 15.2625C11.1388 15.861 11.9507 16.1973 12.7971 16.1973C13.6436 16.1973 14.4554 15.861 15.054 15.2625C15.6525 14.6639 15.9888 13.8521 15.9888 13.0056C15.9888 12.1591 15.6525 11.3473 15.054 10.7488C14.4554 10.1502 13.6436 9.81396 12.7971 9.81396C11.9507 9.81396 11.1388 10.1502 10.5403 10.7488C9.94173 11.3473 9.60547 12.1591 9.60547 13.0056Z" stroke="black" stroke-width="1.59583" stroke-linecap="round" stroke-linejoin="round"/>
<path d="M17.5847 8.21802V8.22802" stroke="black" stroke-width="1.59583" stroke-linecap="round" stroke-linejoin="round"/>
</svg>
