<svg width="71" height="90" viewBox="0 0 71 90" fill="none" xmlns="http://www.w3.org/2000/svg">
<g clip-path="url(#clip0_0_36202)">
<path d="M55.7852 58.9258C55.7852 59.19 55.8932 59.4433 56.0855 59.6301C56.2778 59.8169 56.5386 59.9219 56.8105 59.9219C57.0825 59.9219 57.3433 59.8169 57.5356 59.6301C57.7279 59.4433 57.8359 59.19 57.8359 58.9258C57.8359 58.6616 57.7279 58.4082 57.5356 58.2214C57.3433 58.0346 57.0825 57.9297 56.8105 57.9297C56.5386 57.9297 56.2778 58.0346 56.0855 58.2214C55.8932 58.4082 55.7852 58.6616 55.7852 58.9258Z" fill="#E73B37"/>
<path d="M35.5103 0.374023H0.636719V89.624H70.3633V32.4084L35.5103 0.374023ZM64.0981 32.6773H35.3872V6.28086L64.0981 32.6773ZM65.8516 85.2412H5.14844V4.75684H33.7158L33.7363 4.77676V34.2811H65.8208L65.8413 34.301V85.2412H65.8516Z" fill="white"/>
<path d="M11.7617 46.793H45.1792V48.3867H11.7617V46.793Z" fill="white"/>
<path d="M48.5742 46.793H57.8232V48.3867H48.5742V46.793Z" fill="#E73B37"/>
<path d="M24.375 57.9297H52.7783V59.5234H24.375V57.9297Z" fill="white"/>
<path d="M11.7695 57.9297H21.1211V59.5234H11.7695V57.9297Z" fill="#E73B37"/>
<path d="M11.7031 69.0752H45.1821V70.6689H11.7031V69.0752Z" fill="white"/>
<path d="M50.2461 69.0752H57.8237V70.6689H50.2461V69.0752Z" fill="#E73B37"/>
</g>
<defs>
<clipPath id="clip0_0_36202">
<rect width="71" height="90" fill="white"/>
</clipPath>
</defs>
</svg>
