<svg width="91" height="91" viewBox="0 0 91 91" fill="none" xmlns="http://www.w3.org/2000/svg">
<g clip-path="url(#clip0_4_3465)">
<path d="M31.25 81.25V55.75C31.25 53.4957 32.1455 51.3337 33.7396 49.7396C35.3337 48.1455 37.4957 47.25 39.75 47.25H48.25C50.9912 47.25 53.4265 48.5462 54.982 50.565" stroke="white" stroke-width="3" stroke-linecap="round" stroke-linejoin="round"/>
<path d="M78 38.75L44 4.75L5.75 43H14.25V72.75C14.25 75.0043 15.1455 77.1663 16.7396 78.7604C18.3337 80.3545 20.4957 81.25 22.75 81.25H39.75" stroke="white" stroke-width="3" stroke-linecap="round" stroke-linejoin="round"/>
<path d="M71.285 58.3425C72.1138 57.5137 73.0977 56.8562 74.1806 56.4077C75.2635 55.9591 76.4241 55.7283 77.5963 55.7283C78.7684 55.7283 79.929 55.9591 81.0119 56.4077C82.0948 56.8562 83.0787 57.5137 83.9075 58.3425C84.7363 59.1713 85.3937 60.1552 85.8423 61.2381C86.2908 62.321 86.5217 63.4816 86.5217 64.6537C86.5217 65.8258 86.2908 66.9865 85.8423 68.0693C85.3937 69.1522 84.7363 70.1362 83.9075 70.965L69.5 85.5H56.75V72.75L71.285 58.3425Z" stroke="white" stroke-width="3" stroke-linecap="round" stroke-linejoin="round"/>
</g>
<defs>
<clipPath id="clip0_4_3465">
<rect width="91" height="91" fill="white"/>
</clipPath>
</defs>
</svg>
