<svg width="87" height="85" viewBox="0 0 87 85" fill="none" xmlns="http://www.w3.org/2000/svg">
<g clip-path="url(#clip0_0_36189)">
<path d="M73.2537 32.5975L41.5 1.75098L2.125 40.001H10.875V69.751C10.875 72.0053 11.7969 74.1673 13.4378 75.7614C15.0788 77.3555 17.3044 78.251 19.625 78.251H37.125" stroke="white" stroke-width="3" stroke-linecap="round" stroke-linejoin="round"/>
<path d="M28.375 78.25V52.75C28.375 50.4957 29.2969 48.3337 30.9378 46.7396C32.5788 45.1455 34.8044 44.25 37.125 44.25H43.6875" stroke="white" stroke-width="3" stroke-linecap="round" stroke-linejoin="round"/>
<path d="M66.8738 77.4713L57.3713 82.3078C57.0894 82.4504 56.7721 82.514 56.455 82.4916C56.138 82.4692 55.8336 82.3616 55.5758 82.1808C55.318 82.0001 55.1171 81.7533 54.9953 81.468C54.8736 81.1827 54.8358 80.8702 54.8863 80.5653L56.702 70.3185L49.0151 63.0638C48.7857 62.8483 48.6232 62.5745 48.5463 62.2737C48.4694 61.9728 48.4811 61.657 48.5801 61.3623C48.6791 61.0676 48.8614 60.8058 49.1061 60.607C49.3509 60.4081 49.6484 60.2801 49.9645 60.2375L60.587 58.7415L65.3382 49.4213C65.4803 49.1437 65.6993 48.9101 65.9706 48.7469C66.2419 48.5836 66.5547 48.4971 66.8738 48.4971C67.193 48.4971 67.5058 48.5836 67.7771 48.7469C68.0484 48.9101 68.2674 49.1437 68.4095 49.4213L73.1607 58.7415L83.7832 60.2375C84.0984 60.2816 84.3946 60.4104 84.6383 60.6095C84.8821 60.8086 85.0636 61.0699 85.1623 61.364C85.2611 61.658 85.2732 61.9731 85.1973 62.2735C85.1213 62.5739 84.9604 62.8476 84.7326 63.0638L77.0457 70.3185L78.857 80.561C78.9113 80.8665 78.8764 81.1806 78.7563 81.4677C78.6361 81.7549 78.4354 82.0035 78.1771 82.1854C77.9187 82.3674 77.613 82.4752 77.2947 82.4969C76.9764 82.5185 76.6583 82.453 76.3763 82.3078L66.8738 77.4713Z" stroke="white" stroke-width="3" stroke-linecap="round" stroke-linejoin="round"/>
</g>
<defs>
<clipPath id="clip0_0_36189">
<rect width="87" height="85" fill="white"/>
</clipPath>
</defs>
</svg>
