<svg width="91" height="91" viewBox="0 0 91 91" fill="none" xmlns="http://www.w3.org/2000/svg">
<g clip-path="url(#clip0_4_3470)">
<path d="M30.25 81.25V55.75C30.25 53.4957 31.1455 51.3337 32.7396 49.7396C34.3337 48.1455 36.4957 47.25 38.75 47.25H47.25C49.5043 47.25 51.6663 48.1455 53.2604 49.7396C54.8545 51.3337 55.75 53.4957 55.75 55.75" stroke="white" stroke-width="3" stroke-linecap="round" stroke-linejoin="round"/>
<path d="M72.75 49.324V43H81.25L43 4.75L4.75 43H13.25V72.75C13.25 75.0043 14.1455 77.1663 15.7396 78.7604C17.3337 80.3545 19.4957 81.25 21.75 81.25H40.9812" stroke="white" stroke-width="3" stroke-linecap="round" stroke-linejoin="round"/>
<path d="M55.75 72.75L64.25 81.25L81.25 64.25" stroke="white" stroke-width="3" stroke-linecap="round" stroke-linejoin="round"/>
</g>
<defs>
<clipPath id="clip0_4_3470">
<rect width="91" height="91" fill="white"/>
</clipPath>
</defs>
</svg>
