<svg width="40" height="40" viewBox="0 0 40 40" fill="none" xmlns="http://www.w3.org/2000/svg">
<g clip-path="url(#clip0_22_6)">
<path d="M8.33309 6.6665H14.9998L18.3331 14.9998L14.1664 17.4998C15.9514 21.1191 18.8805 24.0482 22.4998 25.8332L24.9998 21.6665L33.3331 24.9998V31.6665C33.3331 32.5506 32.9819 33.3984 32.3568 34.0235C31.7317 34.6486 30.8838 34.9998 29.9998 34.9998C23.4985 34.6048 17.3667 31.844 12.7611 27.2385C8.1556 22.6329 5.39484 16.5011 4.99976 9.99984C4.99976 9.11578 5.35095 8.26794 5.97607 7.64281C6.60119 7.01769 7.44903 6.6665 8.33309 6.6665Z" stroke="black" stroke-width="1.44348" stroke-linecap="round" stroke-linejoin="round"/>
<path d="M24.9998 11.6665C25.8838 11.6665 26.7317 12.0177 27.3568 12.6428C27.9819 13.2679 28.3331 14.1158 28.3331 14.9998" stroke="black" stroke-width="1.44348" stroke-linecap="round" stroke-linejoin="round"/>
<path d="M24.9998 5C27.6519 5 30.1955 6.05357 32.0708 7.92893C33.9462 9.8043 34.9998 12.3478 34.9998 15" stroke="black" stroke-width="1.44348" stroke-linecap="round" stroke-linejoin="round"/>
</g>
<defs>
<clipPath id="clip0_22_6">
<rect width="40" height="40" fill="white"/>
</clipPath>
</defs>
</svg>
